<?xml version="1.0" standalone="no"?>
<!DOCTYPE svg PUBLIC "-//W3C//DTD SVG 20010904//EN"
 "http://www.w3.org/TR/2001/REC-SVG-20010904/DTD/svg10.dtd">
<svg version="1.0" xmlns="http://www.w3.org/2000/svg"
 width="306.000000pt" height="305.000000pt" viewBox="0 0 306.000000 305.000000"
 preserveAspectRatio="xMidYMid meet">

<g transform="translate(0.000000,305.000000) scale(0.100000,-0.100000)"
fill="#000000" stroke="none">
<path d="M1505 1990 c-46 -10 -95 -39 -126 -72 -24 -27 -31 -29 -56 -21 -90
32 -216 -38 -243 -135 -23 -85 4 -222 45 -222 24 0 28 26 8 56 -21 32 -22 127
-3 165 45 87 152 127 198 74 29 -33 39 -32 56 9 18 43 84 92 135 101 71 12
195 -38 249 -100 34 -38 41 -79 21 -116 -16 -31 3 -45 62 -47 75 -1 138 -37
168 -96 49 -94 24 -203 -54 -240 -39 -19 -41 -23 -20 -50 12 -16 12 -23 0 -45
-39 -76 -175 -117 -237 -71 -32 24 -53 17 -46 -16 9 -46 149 -65 218 -29 78
40 120 89 120 141 0 20 9 39 26 55 48 45 67 96 62 168 -9 122 -73 201 -180
223 -57 12 -58 13 -58 46 0 107 -113 195 -290 225 -14 3 -38 1 -55 -3z"/>
<path d="M1179 1303 c-77 -74 -98 -113 -61 -113 26 1 176 154 169 174 -11 27
-27 18 -108 -61z"/>
<path d="M1372 1191 c-76 -80 -93 -109 -66 -118 10 -3 159 141 176 171 6 10 3
18 -9 24 -15 8 -33 -6 -101 -77z"/>
</g>
</svg>
